<?xml version="1.0" encoding="UTF-8" standalone="no"?>
<svg xmlns:rdf="http://www.w3.org/1999/02/22-rdf-syntax-ns#" xmlns="http://www.w3.org/2000/svg" xml:space="preserve" viewBox="-5840 1394.6 200 97.49831" height="100%" width="100%" version="1.1" y="0px" x="0px" xmlns:cc="http://creativecommons.org/ns#" xmlns:dc="http://purl.org/dc/elements/1.1/"><metadata><rdf:RDF><cc:Work rdf:about=""><dc:format>image/svg+xml</dc:format><dc:type rdf:resource="http://purl.org/dc/dcmitype/StillImage"/><dc:title/></cc:Work></rdf:RDF></metadata>
<style type="text/css">
	.st0{fill:#646569;}
	.st1{fill:#F5831F;}
</style>
<g transform="matrix(1.3522651,0,0,1.3522651,1625.5852,-856.24526)">
	<path fill="#646569" class="st0" d="m-5490.3,1716.6c0-0.8-0.6-1.2-1.4-1.2-0.7,0-1.2,0.2-1.7,0.5v-1c0.4-0.3,1.1-0.5,1.9-0.5,1.4,0,2.3,0.8,2.3,2.1v4.1h-1v-0.5c-0.2,0.2-0.9,0.6-1.6,0.6-1.2,0-2.3-0.7-2.3-1.9,0-1.1,1-1.9,2.3-1.9,0.6,0,1.3,0.3,1.5,0.5v-0.8zm0,1.9c-0.2-0.5-0.8-0.8-1.4-0.8-0.7,0-1.4,0.3-1.4,1.1,0,0.7,0.7,1.1,1.4,1.1,0.6,0,1.2-0.3,1.4-0.8v-0.6zm12.9-6.3v8.4h-1.1v-3.8h-4.7v3.8h-1.1v-8.4h1.1v3.6h4.7v-3.6h1.1zm2.5,5.5c0,1.4,0.9,2.1,2,2.1,0.7,0,1.2-0.2,1.7-0.6v0.9c-0.5,0.4-1.1,0.5-1.8,0.5-1.7,0-2.9-1.2-2.9-3.1s1.1-3.2,2.7-3.2,2.5,1.2,2.5,3v0.4h-4.2zm0-0.8h3.1c0-0.9-0.5-1.7-1.5-1.7-0.7,0.1-1.4,0.6-1.6,1.7zm10.5,2.3,1.3-4.6h1l-1.8,6.1h-1l-1.3-4.6-1.3,4.6h-1l-1.8-6.1h1l1.3,4.6,1.2-4.6h0.9l1.5,4.6zm4.5,1.4h-1v-8.9h1v8.9zm2.4-2.9c0,1.4,0.9,2.1,2,2.1,0.7,0,1.2-0.2,1.7-0.6v0.9c-0.5,0.4-1.1,0.5-1.8,0.5-1.7,0-2.9-1.2-2.9-3.1s1.1-3.2,2.7-3.2,2.5,1.2,2.5,3v0.4h-4.2zm0-0.8h3.1c0-0.9-0.5-1.7-1.5-1.7-0.7,0.1-1.4,0.6-1.6,1.7zm7.1,3.7h-1v-5.2h-1.3v-0.9h1.3v-1.6h1v1.6h1.4v0.9h-1.4v5.2zm4.6,0h-1v-5.2h-1.3v-0.9h1.3v-1.6h1v1.6h1.4v0.9h-1.4v5.2zm6.9-3.4v3.4h-1.1v-8.4h3.1c1.7,0,2.8,0.9,2.8,2.5s-1.1,2.5-2.8,2.5h-2zm2-4.1h-2v3.1h2c1.1,0,1.7-0.6,1.7-1.6,0.1-0.8-0.5-1.5-1.7-1.5zm7.3,3.5c0-0.8-0.6-1.2-1.4-1.2-0.7,0-1.2,0.2-1.7,0.5v-1c0.4-0.3,1.1-0.5,1.9-0.5,1.4,0,2.3,0.8,2.3,2.1v4.1h-1v-0.5c-0.2,0.2-0.9,0.6-1.6,0.6-1.2,0-2.3-0.7-2.3-1.9,0-1.1,1-1.9,2.3-1.9,0.6,0,1.3,0.3,1.5,0.5v-0.8zm0,1.9c-0.2-0.5-0.8-0.8-1.4-0.8-0.7,0-1.4,0.3-1.4,1.1,0,0.7,0.7,1.1,1.4,1.1,0.6,0,1.2-0.3,1.4-0.8v-0.6zm5.2-4.1c0.6,0,1.2,0.1,1.6,0.5v1c-0.4-0.4-1-0.6-1.6-0.6-1.1,0-2,0.8-2,2.2s0.9,2.2,2,2.2c0.6,0,1.1-0.2,1.6-0.6v1c-0.4,0.4-1,0.5-1.6,0.5-1.6,0-2.9-1.2-2.9-3.2,0-1.8,1.3-3,2.9-3zm8.1,6.2h-1.3l-2.8-3v3h-1v-8.9h1v5.4l2.7-2.6h1.3l-3,2.8,3.1,3.3zm4.3-4c0-0.8-0.6-1.2-1.4-1.2-0.7,0-1.2,0.2-1.7,0.5v-1c0.4-0.3,1.1-0.5,1.9-0.5,1.4,0,2.3,0.8,2.3,2.1v4.1h-1v-0.5c-0.2,0.2-0.9,0.6-1.6,0.6-1.2,0-2.3-0.7-2.3-1.9,0-1.1,1-1.9,2.3-1.9,0.6,0,1.3,0.3,1.5,0.5v-0.8zm0,1.9c-0.2-0.5-0.8-0.8-1.4-0.8-0.7,0-1.4,0.3-1.4,1.1,0,0.7,0.7,1.1,1.4,1.1,0.6,0,1.2-0.3,1.4-0.8v-0.6zm5.7-3c-0.2-0.1-0.4-0.2-0.7-0.2-0.6,0-1.2,0.4-1.4,1.1v4.1h-1v-6.1h1v0.8c0.3-0.5,0.8-0.9,1.5-0.9,0.3,0,0.5,0,0.6,0.1v1.1zm5.2,4.4c-0.3,0.4-1,0.8-1.7,0.8-1.8,0-2.7-1.4-2.7-3.2,0-1.7,1-3.2,2.7-3.2,0.8,0,1.4,0.4,1.7,0.8v-3.5h1v8.9h-1v-0.6zm0-3.6c-0.3-0.6-0.9-1-1.6-1-1.2,0-1.8,0.9-1.8,2.2s0.7,2.2,1.8,2.2c0.6,0,1.2-0.4,1.6-1v-2.4zm-91.2,9.6v1h-4.3v2.7h3.9v1h-3.9v2.9h4.3v1h-5.3v-8.4l5.3-0.2zm1.3,2.3h1v0.8c0.4-0.5,1-0.9,1.8-0.9,1.4,0,2.1,0.9,2.1,2.2v4h-1v-3.8c0-0.8-0.4-1.4-1.3-1.4-0.7,0-1.3,0.5-1.5,1.1v4.1h-1v-6.1h-0.1zm8.3,6h-1v-5.2h-1.3v-0.9h1.3v-1.6h1v1.6h1.4v0.9h-1.4v5.2zm3-2.8c0,1.4,0.9,2.1,2,2.1,0.7,0,1.2-0.2,1.7-0.6v0.9c-0.5,0.4-1.1,0.5-1.8,0.5-1.7,0-2.9-1.2-2.9-3.1s1.1-3.2,2.7-3.2,2.5,1.2,2.5,3v0.4h-4.2zm0.1-0.8h3.1c0-0.9-0.5-1.7-1.5-1.7-0.8,0-1.4,0.6-1.6,1.7zm8.6-1.4c-0.2-0.1-0.4-0.2-0.7-0.2-0.6,0-1.2,0.4-1.4,1.1v4.1h-1v-6.1h1v0.8c0.3-0.5,0.8-0.9,1.5-0.9,0.3,0,0.5,0,0.6,0.1v1.1zm2.1,7.4h-1v-8.4h1v0.7c0.3-0.4,1-0.8,1.7-0.8,1.8,0,2.7,1.5,2.7,3.2s-0.9,3.2-2.7,3.2c-0.8,0-1.4-0.4-1.7-0.8v2.9zm0-4.2c0.3,0.6,0.9,1,1.6,1,1.2,0,1.8-0.9,1.8-2.2s-0.7-2.2-1.8-2.2c-0.6,0-1.2,0.4-1.6,1v2.4zm8.9-3.2c-0.2-0.1-0.4-0.2-0.7-0.2-0.6,0-1.2,0.4-1.4,1.1v4.1h-1v-6.1h1v0.8c0.3-0.5,0.8-0.9,1.5-0.9,0.3,0,0.5,0,0.6,0.1v1.1zm1.7-2.2c-0.4,0-0.7-0.3-0.7-0.7s0.3-0.7,0.7-0.7,0.7,0.3,0.7,0.7c-0.1,0.4-0.4,0.7-0.7,0.7zm0.5,7.2h-1v-6.1h1v6.1zm1.4-1.5c0.6,0.5,1.3,0.8,2,0.8s1.3-0.2,1.3-0.8c0-0.5-0.3-0.7-0.9-0.9l-0.8-0.3c-0.9-0.3-1.5-0.7-1.5-1.7,0-1.1,0.9-1.7,2.1-1.7,0.7,0,1.3,0.2,1.8,0.5v1.1c-0.5-0.4-1.1-0.7-1.8-0.7-0.6,0-1.1,0.3-1.1,0.8s0.3,0.7,0.9,0.9l0.9,0.3c0.9,0.3,1.4,0.8,1.4,1.7,0,1.1-1,1.8-2.3,1.8-0.8,0-1.5-0.2-2-0.6v-1.2zm6.3-1.3c0,1.4,0.9,2.1,2,2.1,0.7,0,1.2-0.2,1.7-0.6v0.9c-0.5,0.4-1.1,0.5-1.8,0.5-1.7,0-2.9-1.2-2.9-3.1s1.1-3.2,2.7-3.2,2.5,1.2,2.5,3v0.4h-4.2zm0-0.8h3.1c0-0.9-0.5-1.7-1.5-1.7-0.7,0-1.4,0.6-1.6,1.7zm11.2-2.5c0.6,0,1.2,0.1,1.6,0.5v1c-0.4-0.4-1-0.6-1.6-0.6-1.1,0-2,0.8-2,2.2s0.9,2.2,2,2.2c0.6,0,1.1-0.2,1.6-0.6v1c-0.4,0.4-1,0.5-1.6,0.5-1.6,0-2.9-1.2-2.9-3.2,0-1.8,1.3-3,2.9-3zm5.3,6.3c-1.7,0-2.8-1.3-2.8-3.2s1.1-3.2,2.8-3.2,2.8,1.3,2.8,3.2-1.2,3.2-2.8,3.2zm0-5.4c-1.1,0-1.7,0.9-1.7,2.3,0,1.3,0.7,2.3,1.7,2.3,1.1,0,1.7-0.9,1.7-2.3s-0.6-2.3-1.7-2.3zm10.3-0.9c1.2,0,1.9,0.9,1.9,2.2v4h-1v-3.9c0-0.8-0.4-1.4-1.1-1.4-0.6,0-1.1,0.4-1.3,1.1v4.2h-1v-3.9c0-0.8-0.4-1.4-1.1-1.4-0.6,0-1.1,0.4-1.3,1.1v4.2h-1v-6.1h1v0.7c0.3-0.5,0.9-0.8,1.6-0.8,0.8,0,1.4,0.4,1.6,1,0.2-0.6,0.8-1,1.7-1zm4.6,8.5h-1v-8.4h1v0.7c0.3-0.4,1-0.8,1.7-0.8,1.8,0,2.7,1.5,2.7,3.2s-0.9,3.2-2.7,3.2c-0.8,0-1.4-0.4-1.7-0.8v2.9zm0-4.2c0.3,0.6,0.9,1,1.6,1,1.2,0,1.8-0.9,1.8-2.2s-0.7-2.2-1.8-2.2c-0.6,0-1.2,0.4-1.6,1v2.4zm9.2-2.2c0-0.8-0.6-1.2-1.4-1.2-0.7,0-1.2,0.2-1.7,0.5v-1c0.4-0.3,1.1-0.5,1.9-0.5,1.4,0,2.3,0.8,2.3,2.1v4.1h-1v-0.5c-0.2,0.2-0.9,0.6-1.6,0.6-1.2,0-2.3-0.7-2.3-1.9,0-1.1,1-1.9,2.3-1.9,0.6,0,1.3,0.3,1.5,0.5v-0.8zm0,1.9c-0.2-0.5-0.8-0.8-1.4-0.8-0.7,0-1.4,0.3-1.4,1.1,0,0.7,0.7,1.1,1.4,1.1,0.6,0,1.2-0.3,1.4-0.8v-0.6zm2.7-3.9h1v0.8c0.4-0.5,1-0.9,1.8-0.9,1.4,0,2.1,0.9,2.1,2.2v4h-1v-3.8c0-0.8-0.4-1.4-1.3-1.4-0.7,0-1.3,0.5-1.5,1.1v4.1h-1v-6.1h-0.1zm7.2,8.4,0.9-2.3-2.4-6.1h1.1l1.8,4.8,1.8-4.8h1.1l-3.3,8.4h-1z"/>
	<path fill="#f5831f" class="st1" d="m-5436.9,1687.4,0,0c0,8-6.4,14.5-14.2,14.5s-14.2-6.5-14.2-14.5v-12.3s6.8,1.7,6.8,8.9v3.4c0,4.4,3.3,7.9,7.4,7.9s7.4-3.5,7.4-7.9v-7.1,0.1c0.3-6,5.4-7.9,6.7-8.6h0.1v8.4,7.2zm-36.5-14.4c1.9,0,3.7,0.3,5.3,1v7.6c-1.4-1.2-3.3-1.9-5.3-1.9-4.5,0-8.1,3.5-8.1,7.9v14.3h-6.8v-26.2s2.8,0.1,4.6,1.4c2.6-2.6,6.3-4.1,10.3-4.1m-32.6,22.4c-4.5,0-8.2-3.6-8.2-8s3.7-8,8.2-8,8.2,3.6,8.2,8-3.7,8-8.2,8m0-22.4c-8.2,0-14.8,6.5-14.8,14.4,0,8,6.6,14.4,14.8,14.4,3.4,0,6.5-1.1,9-3,1.5,2.5,5.8,3,5.8,3v-14.4c0-7.9-6.6-14.4-14.8-14.4m118.3,22.4c-4.5,0-8.2-3.6-8.2-8s3.7-8,8.2-8,8.2,3.6,8.2,8-3.7,8-8.2,8m0-22.4c-8.2,0-14.8,6.5-14.8,14.4,0,8,6.6,14.4,14.8,14.4,3.4,0,6.5-1.1,9-3,1.5,2.5,5.8,3,5.8,3v-14.4c0-7.9-6.6-14.4-14.8-14.4m-31.4,22.4c-4.5,0-8.2-3.6-8.2-8s3.7-8,8.2-8,8.2,3.6,8.2,8c0.1,4.4-3.6,8-8.2,8m0-22.4c-3,0-5.8,0.9-8.2,2.4v-2.3c-0.3-6-5.2-7.9-6.5-8.6h-0.1v37.4s4.4-0.5,6.1-2.9c2.5,1.7,5.5,2.8,8.7,2.8,8.2,0,14.8-6.5,14.8-14.4,0.1-7.9-6.6-14.4-14.8-14.4"/>
</g>
</svg>