<svg id="Enthought_Logo:_Spot" data-name="Enthought Logo: Spot" xmlns="http://www.w3.org/2000/svg" viewBox="0 0 2680.95 2028.19" style="width:250px;"><defs><style>.cls-1{fill:#a1c3e3;}.cls-2{fill:#4488c7;}</style></defs><title>Enthought Logo Vertical 2018 - Blue Primary</title><g id="Blue_-_Primary_-_Spot" data-name="Blue - Primary - Spot"><polygon class="cls-1" points="881.58 994.06 881.58 993.96 881.58 510.54 881.49 510.49 668.88 387.74 668.88 387.74 668.88 387.84 668.88 1116.76 668.88 1116.76 1340.47 1504.5 1340.47 1259.01 881.58 994.06"/><path id="path27" class="cls-2" d="M171.53,2519V2303.09H362.44v43.35H214.05V2386h78.36V2429H214.05v46.68H367.44V2519H171.53Z" transform="translate(-171.53 -497.9)"/><path id="path29" class="cls-2" d="M619.25,2519l-120-146.31V2519H456.26V2303.09H499.2L619.25,2449V2303.09h42.93V2519H619.25Z" transform="translate(-171.53 -497.9)"/><path id="path31" class="cls-2" d="M872.71,2346v173H829.77V2346H751.41v-42.94H954V2346Z" transform="translate(-171.53 -497.9)"/><path id="path33" class="cls-2" d="M1204.13,2519v-90.45H1086.58V2519h-42.52V2303.09h42.52v81.7h117.55v-81.7h42.52V2519h-42.52Z" transform="translate(-171.53 -497.9)"/><path id="path35" class="cls-2" d="M1483.86,2526.09c-67.95,0-132.13-42.94-132.13-115.88S1417.17,2296,1484.27,2296c68,0,133,38.35,133,113,0,73.36-65,117.13-133.39,117.13Zm.83-185.91c-43.35,0-89.2,21.68-89.2,70.86,0,48.78,46.68,70.87,89.63,70.87,42.51,0,88.36-25.43,88.36-72.53C1573.48,2361,1526.8,2340.18,1484.69,2340.18Z" transform="translate(-171.53 -497.9)"/><path id="path37" class="cls-2" d="M1912,2491.91c-20.84,25.85-58.77,34.19-90.45,34.19-60,0-101.71-27.93-101.71-91.71v-131.3h42.94v131.3c0,44.18,28.35,47.94,65,47.94,13.35,0,30-2.92,41.69-9.59,12.09-6.66,16.26-15,16.26-38.35v-131.3h42.51v131.3c0,22.51-1.66,39.18-16.26,57.52Z" transform="translate(-171.53 -497.9)"/><path id="path39" class="cls-2" d="M2149.62,2526.09c-68.36,0-130.89-41.27-130.89-115.05,0-72.94,62.11-115.05,130.06-115.05,35.85,0,71.28,8.76,101.71,27.51l-25.43,43.35c-24.17-16.67-48.35-27.1-78.36-27.1-42.51,0-84.2,24.18-84.2,70.87s39.18,71.28,82.12,71.28c27.51,0,42.51-6.26,65.86-19.59v-25.85h-52.94V2396h97.12v90.86c-33.36,27.1-61.7,39.19-105.05,39.19Z" transform="translate(-171.53 -497.9)"/><path id="path41" class="cls-2" d="M2516.05,2519v-90.45H2398.5V2519H2356V2303.09h42.52v81.7h117.55v-81.7h42.52V2519h-42.52Z" transform="translate(-171.53 -497.9)"/><path id="path43" class="cls-2" d="M2771.19,2346v173h-42.94V2346h-78.36v-42.94h202.58V2346Z" transform="translate(-171.53 -497.9)"/><polyline class="cls-2" points="2012.06 387.74 2012.06 387.74 2012.06 387.74 2012.06 387.74 2012.06 387.74 2011.05 387.16 2011.05 387.16 1340.47 0 1340.47 0 669.89 387.16 669.89 387.16 668.88 387.74 668.88 387.74 881.49 510.49 881.58 510.44 1340.47 245.5 1586.85 387.74 1127.87 652.74 1127.87 652.74 1340.47 775.49 1340.47 775.49 1340.47 775.49 1340.47 775.49 1340.47 775.49 1340.47 775.49 2012.06 387.74"/><polygon class="cls-2" points="2011.05 1116.17 2011.05 871.84 1340.47 1259.01 1340.47 1504.5 2012.06 1116.76 2012.06 1116.76 2011.05 1116.17"/></g></svg>
