<?xml version="1.0" encoding="UTF-8"?>
<svg width="512px" height="512px" viewBox="0 0 512 512" version="1.1" xmlns="http://www.w3.org/2000/svg" xmlns:xlink="http://www.w3.org/1999/xlink">
    <!-- Generator: Sketch 49.3 (51167) - http://www.bohemiancoding.com/sketch -->
    <title>Logo-Name</title>
    <desc>Created with Sketch.</desc>
    <defs/>
    <g id="Logo-Name" stroke="none" stroke-width="1" fill="none" fill-rule="evenodd">
        <path d="M118.884,442.728 C119.396003,443.560004 119.604,444.471995 119.508,445.464 C119.412,446.456005 118.756006,447.303996 117.54,448.008 C116.387994,448.648003 114.740011,449.447995 112.596,450.408 C110.451989,451.368005 107.972014,452.279996 105.156,453.144 C102.339986,454.008004 99.2200171,454.759997 95.796,455.4 C92.3719829,456.040003 88.8040186,456.392 85.092,456.456 C81.6359827,456.52 78.6760123,456.136004 76.212,455.304 C73.7479877,454.471996 71.8920062,453.272008 70.644,451.704 C69.3959938,450.135992 68.7879998,448.264011 68.82,446.088 C68.8520002,443.911989 69.6359923,441.480013 71.172,438.792 C72.1320048,437.127992 73.2839933,435.512008 74.628,433.944 C75.9720067,432.375992 77.4919915,430.904007 79.188,429.528 C80.8840085,428.151993 82.6919904,426.904006 84.612,425.784 C86.5320096,424.663994 88.5479894,423.720004 90.66,422.952 C91.4280038,422.695999 92.3559946,422.536 93.444,422.472 C94.5320054,422.408 95.4599962,422.439999 96.228,422.568 C97.7000074,422.760001 98.7719966,423.223996 99.444,423.96 C100.116003,424.696004 100.484,425.511996 100.548,426.408 C100.548,427.304004 100.244003,428.151996 99.636,428.952 C99.027997,429.752004 98.1800054,430.247999 97.092,430.44 C96.3239962,430.632001 95.4920045,430.68 94.596,430.584 C93.6999955,430.488 92.8040045,430.280002 91.908,429.96 C90.7559942,430.280002 89.4920069,430.823996 88.116,431.592 C86.7399931,432.360004 85.4120064,433.303994 84.132,434.424 C82.8519936,435.544006 81.6520056,436.743994 80.532,438.024 C79.4119944,439.304006 78.5320032,440.583994 77.892,441.864 C77.3799974,442.824005 77.1080002,443.767995 77.076,444.696 C77.0439998,445.624005 77.3159971,446.439996 77.892,447.144 C78.4680029,447.848004 79.3159944,448.407998 80.436,448.824 C81.5560056,449.240002 83.011991,449.448 84.804,449.448 C88.004016,449.448 91.1559845,449.160003 94.26,448.584 C97.3640155,448.007997 100.243987,447.304004 102.9,446.472 C105.556013,445.639996 107.85999,444.776004 109.812,443.88 C111.76401,442.983996 113.187996,442.280003 114.084,441.768 C115.044005,441.255997 115.955996,441.111999 116.82,441.336 C117.684004,441.560001 118.371997,442.023996 118.884,442.728 Z M130.5,406.824 C130.307999,403.303982 129.668005,401.416001 128.58,401.16 C127.555995,400.839998 126.148009,402.055986 124.356,404.808 C123.523996,406.088006 122.692004,407.671991 121.86,409.56 C121.027996,411.448009 120.244004,413.527989 119.508,415.8 C118.771996,418.072011 118.180002,420.439988 117.732,422.904 C117.283998,425.368012 117.028,427.751988 116.964,430.056 C116.835999,433.320016 117.283995,436.295987 118.308,438.984 C119.972008,436.99999 121.635992,434.872011 123.3,432.6 C124.964008,430.327989 126.339995,427.912013 127.428,425.352 C127.812002,424.391995 128.211998,423.160008 128.628,421.656 C129.044002,420.151992 129.395999,418.536009 129.684,416.808 C129.972001,415.079991 130.195999,413.352009 130.356,411.624 C130.516001,409.895991 130.564,408.296007 130.5,406.824 Z M153.924,445.128 C154.244002,445.960004 154.228002,446.839995 153.876,447.768 C153.523998,448.696005 152.708006,449.415997 151.428,449.928 C149.763992,450.504003 147.636013,451.239996 145.044,452.136 C142.451987,453.032004 139.716014,453.799997 136.836,454.44 C133.955986,455.080003 131.044015,455.463999 128.1,455.592 C125.155985,455.720001 122.500012,455.304005 120.132,454.344 C116.09998,452.679992 113.348007,449.768021 111.876,445.608 C110.403993,441.447979 109.7,436.264031 109.764,430.056 C109.764,427.367987 110.019997,424.584014 110.532,421.704 C111.044003,418.823986 111.731996,416.056013 112.596,413.4 C113.460004,410.743987 114.451994,408.248012 115.572,405.912 C116.692006,403.575988 117.827994,401.576008 118.98,399.912 C121.02801,397.031986 123.05999,394.888007 125.076,393.48 C127.09201,392.071993 128.995991,391.527998 130.788,391.848 C132.70801,392.104001 134.291994,393.335989 135.54,395.544 C136.788006,397.752011 137.539999,401.031978 137.796,405.384 C137.924001,407.112009 137.924001,408.98399 137.796,411 C137.667999,413.01601 137.428002,415.04799 137.076,417.096 C136.723998,419.14401 136.276003,421.14399 135.732,423.096 C135.187997,425.04801 134.564004,426.823992 133.86,428.424 C133.091996,430.216009 132.212005,431.927992 131.22,433.56 C130.227995,435.192008 129.188005,436.743993 128.1,438.216 C127.011995,439.688007 125.908006,441.063994 124.788,442.344 C123.667994,443.624006 122.596005,444.807995 121.572,445.896 C121.956002,446.216002 122.547996,446.599998 123.348,447.048 C124.148004,447.496002 124.899996,447.783999 125.604,447.912 C127.204008,448.168001 128.96399,448.184001 130.884,447.96 C132.80401,447.735999 134.78799,447.368003 136.836,446.856 C138.88401,446.343997 140.963989,445.752003 143.076,445.08 C145.188011,444.407997 147.20399,443.720004 149.124,443.016 C150.212005,442.631998 151.203996,442.663998 152.1,443.112 C152.996004,443.560002 153.603998,444.231996 153.924,445.128 Z M203.268,444.936 C203.908003,445.768004 204.148001,446.727995 203.988,447.816 C203.827999,448.904005 203.236005,449.767997 202.212,450.408 C200.035989,451.624006 197.556014,452.727995 194.772,453.72 C191.987986,454.712005 189.412012,455.335999 187.044,455.592 C184.227986,455.848001 182.068008,455.688003 180.564,455.112 C179.059992,454.535997 177.764005,453.416008 176.676,451.752 C176.227998,451.175997 175.828002,450.312006 175.476,449.16 C175.123998,448.007994 174.948,446.984004 174.948,446.088 C174.884,445.575997 174.644002,445.272 174.228,445.176 C173.811998,445.08 173.348003,445.223998 172.836,445.608 C172.131996,446.056002 171.284005,446.679996 170.292,447.48 C169.299995,448.280004 168.244006,449.159995 167.124,450.12 C166.003994,451.080005 164.868006,452.071995 163.716,453.096 C162.563994,454.120005 161.476005,455.047996 160.452,455.88 C158.019988,457.736009 155.748011,458.712 153.636,458.808 C151.523989,458.904 149.796007,458.344006 148.452,457.128 C146.787992,455.655993 145.956,453.448015 145.956,450.504 C146.02,449.095993 146.243998,447.704007 146.628,446.328 C147.012002,444.951993 147.523997,443.624006 148.164,442.344 C149.124005,440.42399 150.307993,438.536009 151.716,436.68 C153.124007,434.823991 154.611992,433.080008 156.18,431.448 C157.748008,429.815992 159.331992,428.344007 160.932,427.032 C162.532008,425.719993 164.003993,424.616004 165.348,423.72 C166.500006,422.951996 167.811993,422.136004 169.284,421.272 C170.756007,420.407996 172.339992,419.768002 174.036,419.352 C175.732008,418.935998 177.507991,418.855999 179.364,419.112 C181.220009,419.368001 183.075991,420.263992 184.932,421.8 C185.764004,422.504004 186.212,423.271996 186.276,424.104 C186.34,424.936004 186.180002,425.703996 185.796,426.408 C185.283997,427.304004 184.468006,427.895999 183.348,428.184 C182.227994,428.472001 181.156005,428.296003 180.132,427.656 C178.659993,426.503994 177.044009,426.071999 175.284,426.36 C173.523991,426.648001 171.460012,427.591992 169.092,429.192 C167.939994,429.960004 166.644007,430.967994 165.204,432.216 C163.763993,433.464006 162.372007,434.823993 161.028,436.296 C159.683993,437.768007 158.420006,439.287992 157.236,440.856 C156.051994,442.424008 155.108004,443.943993 154.404,445.416 C154.019998,446.184004 153.764001,447.111995 153.636,448.2 C153.507999,449.288005 153.699997,450.023998 154.212,450.408 C154.916004,450.984003 155.939993,450.696006 157.284,449.544 C158.244005,448.711996 159.443993,447.688006 160.884,446.472 C162.324007,445.255994 163.811992,444.024006 165.348,442.776 C166.884008,441.527994 168.403992,440.328006 169.908,439.176 C171.412008,438.023994 172.739994,437.096004 173.892,436.392 C174.852005,435.815997 175.827995,435.416001 176.82,435.192 C177.812005,434.967999 178.691996,434.951999 179.46,435.144 C180.228004,435.336001 180.835998,435.751997 181.284,436.392 C181.732002,437.032003 181.956,437.895995 181.956,438.984 C181.892,440.264006 181.908,441.463994 182.004,442.584 C182.1,443.704006 182.307998,444.679996 182.628,445.512 C183.012002,446.600005 183.539997,447.335998 184.212,447.72 C184.884003,448.104002 185.763995,448.264 186.852,448.2 C187.684004,448.071999 188.643995,447.864001 189.732,447.576 C190.820005,447.287999 191.907995,446.952002 192.996,446.568 C194.084005,446.183998 195.155995,445.784002 196.212,445.368 C197.268005,444.951998 198.179996,444.552002 198.948,444.168 C199.908005,443.719998 200.739996,443.591999 201.444,443.784 C202.148004,443.976001 202.755997,444.359997 203.268,444.936 Z M243.588,428.904 C243.716001,430.376007 243.78,432.295988 243.78,434.664 C243.78,437.032012 243.684001,439.671985 243.492,442.584 C243.299999,445.496015 243.060001,448.599984 242.772,451.896 C242.483999,455.192016 242.116002,458.535983 241.668,461.928 C241.219998,465.320017 240.740003,468.679983 240.228,472.008 C239.715997,475.336017 239.140003,478.471985 238.5,481.416 C238.243999,482.696006 237.668004,483.591997 236.772,484.104 C235.875996,484.616003 234.980004,484.776001 234.084,484.584 C233.123995,484.455999 232.340003,483.992004 231.732,483.192 C231.123997,482.391996 230.979998,481.320007 231.3,479.976 C232.068004,476.967985 232.739997,473.608019 233.316,469.896 C233.892003,466.183981 234.371998,462.408019 234.756,458.568 C235.140002,454.727981 235.443999,450.968018 235.668,447.288 C235.892001,443.607982 236.036,440.296015 236.1,437.352 C236.164,436.775997 236.100001,436.360001 235.908,436.104 C235.715999,435.847999 235.444002,435.688 235.092,435.624 C234.739998,435.56 234.372002,435.623999 233.988,435.816 C233.603998,436.008001 233.252002,436.263998 232.932,436.584 C231.907995,437.544005 230.628008,438.695993 229.092,440.04 C227.555992,441.384007 225.924009,442.775993 224.196,444.216 C222.467991,445.656007 220.724009,447.047993 218.964,448.392 C217.203991,449.736007 215.588007,450.887995 214.116,451.848 C211.427987,453.512008 208.852012,454.551998 206.388,454.968 C203.923988,455.384002 201.604011,454.728009 199.428,453 C198.659996,452.295996 197.908004,451.336006 197.172,450.12 C196.435996,448.903994 196.036,447.27201 195.972,445.224 C195.972,443.687992 196.211998,442.040009 196.692,440.28 C197.172002,438.519991 197.795996,436.808008 198.564,435.144 C199.332004,433.479992 200.147996,431.944007 201.012,430.536 C201.876004,429.127993 202.659996,428.008004 203.364,427.176 C204.068004,426.279996 204.899995,425.768001 205.86,425.64 C206.820005,425.511999 207.651996,425.607998 208.356,425.928 C209.380005,426.440003 210.019999,427.191995 210.276,428.184 C210.532001,429.176005 210.180005,430.279994 209.22,431.496 C208.643997,432.200004 208.036003,433.095995 207.396,434.184 C206.755997,435.272005 206.148003,436.391994 205.572,437.544 C204.995997,438.696006 204.532002,439.847994 204.18,441 C203.827998,442.152006 203.652,443.175996 203.652,444.072 C203.652,444.776004 203.779999,445.335998 204.036,445.752 C204.292001,446.168002 204.547999,446.503999 204.804,446.76 C205.380003,447.336003 206.131995,447.528001 207.06,447.336 C207.988005,447.143999 209.091994,446.632004 210.372,445.8 C212.29201,444.583994 214.29199,443.160008 216.372,441.528 C218.45201,439.895992 220.547989,438.168009 222.66,436.344 C224.772011,434.519991 226.83599,432.680009 228.852,430.824 C230.86801,428.967991 232.739991,427.208008 234.468,425.544 C235.236004,424.711996 236.163995,424.200001 237.252,424.008 C238.340005,423.815999 239.363995,423.879998 240.324,424.2 C241.156004,424.520002 241.875997,425.063996 242.484,425.832 C243.092003,426.600004 243.459999,427.623994 243.588,428.904 Z M311.844,406.824 C311.651999,403.303982 311.012005,401.416001 309.924,401.16 C308.899995,400.839998 307.492009,402.055986 305.7,404.808 C304.867996,406.088006 304.036004,407.671991 303.204,409.56 C302.371996,411.448009 301.588004,413.527989 300.852,415.8 C300.115996,418.072011 299.524002,420.439988 299.076,422.904 C298.627998,425.368012 298.372,427.751988 298.308,430.056 C298.179999,433.320016 298.627995,436.295987 299.652,438.984 C301.316008,436.99999 302.979992,434.872011 304.644,432.6 C306.308008,430.327989 307.683995,427.912013 308.772,425.352 C309.156002,424.391995 309.555998,423.160008 309.972,421.656 C310.388002,420.151992 310.739999,418.536009 311.028,416.808 C311.316001,415.079991 311.539999,413.352009 311.7,411.624 C311.860001,409.895991 311.908,408.296007 311.844,406.824 Z M335.268,445.128 C335.588002,445.960004 335.572002,446.839995 335.22,447.768 C334.867998,448.696005 334.052006,449.415997 332.772,449.928 C331.107992,450.504003 328.980013,451.239996 326.388,452.136 C323.795987,453.032004 321.060014,453.799997 318.18,454.44 C315.299986,455.080003 312.388015,455.463999 309.444,455.592 C306.499985,455.720001 303.844012,455.304005 301.476,454.344 C297.44398,452.679992 294.692007,449.768021 293.22,445.608 C291.747993,441.447979 291.044,436.264031 291.108,430.056 C291.108,427.367987 291.363997,424.584014 291.876,421.704 C292.388003,418.823986 293.075996,416.056013 293.94,413.4 C294.804004,410.743987 295.795994,408.248012 296.916,405.912 C298.036006,403.575988 299.171994,401.576008 300.324,399.912 C302.37201,397.031986 304.40399,394.888007 306.42,393.48 C308.43601,392.071993 310.339991,391.527998 312.132,391.848 C314.05201,392.104001 315.635994,393.335989 316.884,395.544 C318.132006,397.752011 318.883999,401.031978 319.14,405.384 C319.268001,407.112009 319.268001,408.98399 319.14,411 C319.011999,413.01601 318.772002,415.04799 318.42,417.096 C318.067998,419.14401 317.620003,421.14399 317.076,423.096 C316.531997,425.04801 315.908004,426.823992 315.204,428.424 C314.435996,430.216009 313.556005,431.927992 312.564,433.56 C311.571995,435.192008 310.532005,436.743993 309.444,438.216 C308.355995,439.688007 307.252006,441.063994 306.132,442.344 C305.011994,443.624006 303.940005,444.807995 302.916,445.896 C303.300002,446.216002 303.891996,446.599998 304.692,447.048 C305.492004,447.496002 306.243996,447.783999 306.948,447.912 C308.548008,448.168001 310.30799,448.184001 312.228,447.96 C314.14801,447.735999 316.13199,447.368003 318.18,446.856 C320.22801,446.343997 322.307989,445.752003 324.42,445.08 C326.532011,444.407997 328.54799,443.720004 330.468,443.016 C331.556005,442.631998 332.547996,442.663998 333.444,443.112 C334.340004,443.560002 334.947998,444.231996 335.268,445.128 Z M384.612,444.936 C385.252003,445.768004 385.492001,446.727995 385.332,447.816 C385.171999,448.904005 384.580005,449.767997 383.556,450.408 C381.379989,451.624006 378.900014,452.727995 376.116,453.72 C373.331986,454.712005 370.756012,455.335999 368.388,455.592 C365.571986,455.848001 363.412008,455.688003 361.908,455.112 C360.403992,454.535997 359.108005,453.416008 358.02,451.752 C357.571998,451.175997 357.172002,450.312006 356.82,449.16 C356.467998,448.007994 356.292,446.984004 356.292,446.088 C356.228,445.575997 355.988002,445.272 355.572,445.176 C355.155998,445.08 354.692003,445.223998 354.18,445.608 C353.475996,446.056002 352.628005,446.679996 351.636,447.48 C350.643995,448.280004 349.588006,449.159995 348.468,450.12 C347.347994,451.080005 346.212006,452.071995 345.06,453.096 C343.907994,454.120005 342.820005,455.047996 341.796,455.88 C339.363988,457.736009 337.092011,458.712 334.98,458.808 C332.867989,458.904 331.140007,458.344006 329.796,457.128 C328.131992,455.655993 327.3,453.448015 327.3,450.504 C327.364,449.095993 327.587998,447.704007 327.972,446.328 C328.356002,444.951993 328.867997,443.624006 329.508,442.344 C330.468005,440.42399 331.651993,438.536009 333.06,436.68 C334.468007,434.823991 335.955992,433.080008 337.524,431.448 C339.092008,429.815992 340.675992,428.344007 342.276,427.032 C343.876008,425.719993 345.347993,424.616004 346.692,423.72 C347.844006,422.951996 349.155993,422.136004 350.628,421.272 C352.100007,420.407996 353.683992,419.768002 355.38,419.352 C357.076008,418.935998 358.851991,418.855999 360.708,419.112 C362.564009,419.368001 364.419991,420.263992 366.276,421.8 C367.108004,422.504004 367.556,423.271996 367.62,424.104 C367.684,424.936004 367.524002,425.703996 367.14,426.408 C366.627997,427.304004 365.812006,427.895999 364.692,428.184 C363.571994,428.472001 362.500005,428.296003 361.476,427.656 C360.003993,426.503994 358.388009,426.071999 356.628,426.36 C354.867991,426.648001 352.804012,427.591992 350.436,429.192 C349.283994,429.960004 347.988007,430.967994 346.548,432.216 C345.107993,433.464006 343.716007,434.823993 342.372,436.296 C341.027993,437.768007 339.764006,439.287992 338.58,440.856 C337.395994,442.424008 336.452004,443.943993 335.748,445.416 C335.363998,446.184004 335.108001,447.111995 334.98,448.2 C334.851999,449.288005 335.043997,450.023998 335.556,450.408 C336.260004,450.984003 337.283993,450.696006 338.628,449.544 C339.588005,448.711996 340.787993,447.688006 342.228,446.472 C343.668007,445.255994 345.155992,444.024006 346.692,442.776 C348.228008,441.527994 349.747992,440.328006 351.252,439.176 C352.756008,438.023994 354.083994,437.096004 355.236,436.392 C356.196005,435.815997 357.171995,435.416001 358.164,435.192 C359.156005,434.967999 360.035996,434.951999 360.804,435.144 C361.572004,435.336001 362.179998,435.751997 362.628,436.392 C363.076002,437.032003 363.3,437.895995 363.3,438.984 C363.236,440.264006 363.252,441.463994 363.348,442.584 C363.444,443.704006 363.651998,444.679996 363.972,445.512 C364.356002,446.600005 364.883997,447.335998 365.556,447.72 C366.228003,448.104002 367.107995,448.264 368.196,448.2 C369.028004,448.071999 369.987995,447.864001 371.076,447.576 C372.164005,447.287999 373.251995,446.952002 374.34,446.568 C375.428005,446.183998 376.499995,445.784002 377.556,445.368 C378.612005,444.951998 379.523996,444.552002 380.292,444.168 C381.252005,443.719998 382.083996,443.591999 382.788,443.784 C383.492004,443.976001 384.099997,444.359997 384.612,444.936 Z M415.716,425.16 C417.060007,426.696008 417.668001,428.759987 417.54,431.352 C417.411999,433.944013 416.548008,436.679986 414.948,439.56 C414.179996,441.160008 413.204006,442.823991 412.02,444.552 C410.835994,446.280009 409.540007,447.911992 408.132,449.448 C405.891989,451.880012 403.412014,454.039991 400.692,455.928 C397.971986,457.816009 395.204014,459.655991 392.388,461.448 C391.427995,462.088003 390.500004,462.280001 389.604,462.024 C388.707996,461.767999 388.004003,461.224004 387.492,460.392 C387.043998,459.623996 386.915999,458.744005 387.108,457.752 C387.300001,456.759995 387.779996,456.008003 388.548,455.496 C391.556015,453.57599 394.275988,451.768008 396.708,450.072 C399.140012,448.375992 401.251991,446.472011 403.044,444.36 C404.196006,443.079994 405.267995,441.704007 406.26,440.232 C407.252005,438.759993 408.003997,437.416006 408.516,436.2 C409.092003,434.983994 409.475999,433.944004 409.668,433.08 C409.860001,432.215996 409.700003,431.432004 409.188,430.728 C408.867998,430.279998 408.388003,429.976001 407.748,429.816 C407.107997,429.655999 406.180006,429.639999 404.964,429.768 C403.299992,429.960001 401.316012,430.439996 399.012,431.208 C396.707988,431.976004 394.468011,432.999994 392.292,434.28 C391.203995,434.920003 390.148005,435.687996 389.124,436.584 C388.099995,437.480004 387.332003,438.471995 386.82,439.56 C386.691999,439.880002 386.58,440.183999 386.484,440.472 L386.148,441.48 C386.019999,442.376004 385.972,443.255996 386.004,444.12 C386.036,444.984004 386.084,445.799996 386.148,446.568 C386.084,447.720006 385.716003,448.599997 385.044,449.208 C384.371997,449.816003 383.620004,450.152 382.788,450.216 C381.955996,450.28 381.172004,450.024003 380.436,449.448 C379.699996,448.871997 379.204001,447.976006 378.948,446.76 C378.563998,444.903991 378.324,442.712013 378.228,440.184 C378.132,437.655987 378.132,434.968014 378.228,432.12 C378.324,429.271986 378.499999,426.328015 378.756,423.288 C379.012001,420.247985 379.315998,417.320014 379.668,414.504 C380.020002,411.687986 380.387998,409.048012 380.772,406.584 C381.156002,404.119988 381.539998,401.992009 381.924,400.2 C382.116001,399.175995 382.323999,398.264004 382.548,397.464 C382.772001,396.663996 383.139997,395.912004 383.652,395.208 C384.548004,393.927994 385.795992,393.351999 387.396,393.48 C388.356005,393.48 389.155997,393.751997 389.796,394.296 C390.436003,394.840003 390.692001,395.623995 390.564,396.648 C390.5,397.416004 390.276002,398.167996 389.892,398.904 C389.507998,399.640004 389.252001,400.231998 389.124,400.68 C388.803998,402.536009 388.468002,404.631988 388.116,406.968 C387.763998,409.304012 387.412002,411.799987 387.06,414.456 C386.707998,417.112013 386.404001,419.847986 386.148,422.664 C385.891999,425.480014 385.700001,428.263986 385.572,431.016 C386.212003,430.247996 387.043995,429.496004 388.068,428.76 C389.092005,428.023996 390.115995,427.400003 391.14,426.888 C392.932009,425.991996 395.075988,425.112004 397.572,424.248 C400.068012,423.383996 402.563988,422.792002 405.06,422.472 C407.620013,422.087998 409.779991,422.167997 411.54,422.712 C413.300009,423.256003 414.691995,424.071995 415.716,425.16 Z M454.212,419.688 C453.827998,420.264003 453.300003,420.711998 452.628,421.032 C451.955997,421.352002 451.172004,421.352002 450.276,421.032 C449.379996,420.711998 448.484004,420.264003 447.588,419.688 C446.691996,419.688 445.540007,419.863998 444.132,420.216 C442.723993,420.568002 441.252008,421.031997 439.716,421.608 C438.179992,422.184003 436.660008,422.839996 435.156,423.576 C433.651992,424.312004 432.356005,425.063996 431.268,425.832 C429.603992,426.920005 428.74,427.943995 428.676,428.904 C428.676,429.736004 429.443992,430.567996 430.98,431.4 C432.90001,432.424005 434.787991,433.351996 436.644,434.184 C438.500009,435.016004 440.515989,436.263992 442.692,437.928 C444.164007,439.144006 445.219997,440.615991 445.86,442.344 C446.500003,444.072009 446.82,445.767992 446.82,447.432 C446.82,449.224009 446.532003,450.999991 445.956,452.76 C445.379997,454.520009 444.612005,456.103993 443.652,457.512 C441.987992,460.072013 439.988012,462.471989 437.652,464.712 C435.315988,466.952011 432.516016,468.967991 429.252,470.76 C427.779993,471.592004 426.244008,472.008 424.644,472.008 C423.107992,472.008 421.604007,471.656004 420.132,470.952 C418.787993,470.247996 417.972001,469.352005 417.684,468.264 C417.395999,467.175995 417.443998,466.184004 417.828,465.288 C418.276002,464.327995 418.995995,463.672002 419.988,463.32 C420.980005,462.967998 422.083994,463.175996 423.3,463.944 C423.812003,464.328002 424.387997,464.504 425.028,464.472 C425.668003,464.44 426.243997,464.264002 426.756,463.944 C428.868011,462.663994 430.93199,461.080009 432.948,459.192 C434.96401,457.303991 436.515995,455.464009 437.604,453.672 C438.308004,452.583995 438.819998,451.528005 439.14,450.504 C439.460002,449.479995 439.62,448.520004 439.62,447.624 C439.684,446.023992 439.140006,444.648006 437.988,443.496 C436.771994,442.407995 435.14001,441.368005 433.092,440.376 C431.04399,439.383995 428.804012,438.344005 426.372,437.256 C424.195989,436.359996 422.564005,435.240007 421.476,433.896 C420.387995,432.551993 419.844,431.112008 419.844,429.576 C419.844,428.103993 420.419994,426.568008 421.572,424.968 C422.724006,423.367992 424.451988,421.832007 426.756,420.36 C427.972006,419.527996 429.411992,418.664004 431.076,417.768 C432.740008,416.871996 434.499991,416.056004 436.356,415.32 C438.212009,414.583996 440.14799,413.960003 442.164,413.448 C444.18001,412.935997 446.14799,412.648 448.068,412.584 C449.348006,412.52 450.499995,412.695998 451.524,413.112 C452.548005,413.528002 453.347997,414.087996 453.924,414.792 C454.628004,415.560004 454.98,416.391996 454.98,417.288 C454.98,418.184004 454.724003,418.983996 454.212,419.688 Z" id="clay-labs---Outline" fill="#636363" fill-rule="nonzero"/>
        <path d="M138.411744,130.478141 C164.254761,142.163004 207.323687,149.814202 256.088406,149.814202 C305.31747,149.814202 348.741752,142.016599 374.498615,130.143252 C411.24737,154.603513 434.411594,190.326004 434.411594,230.113343 C434.411594,303.85073 354.850004,363.626686 256.705797,363.626686 C158.561591,363.626686 79,303.85073 79,230.113343 C79,190.507203 101.953716,154.92897 138.411744,130.478141 Z M256.737001,131.404329 C189.263385,131.404329 134.565217,115.419926 134.565217,95.7021645 C134.565217,75.9844025 189.263385,60 256.737001,60 C324.210617,60 378.908784,75.9844025 378.908784,95.7021645 C378.908784,115.419926 324.210617,131.404329 256.737001,131.404329 Z" id="Logo-Shape" fill="#FF861E"/>
    </g>
</svg>