<svg xmlns="http://www.w3.org/2000/svg" viewBox="0 0 500 500" style="width: 250px;"><g fill="none" fill-rule="evenodd"><path d="M118.884 442.728c.512.832.72 1.744.624 2.736-.096.992-.752 1.84-1.968 2.544-1.152.64-2.8 1.44-4.944 2.4s-4.624 1.872-7.44 2.736c-2.816.864-5.936 1.616-9.36 2.256-3.424.64-6.992.992-10.704 1.056-3.456.064-6.416-.32-8.88-1.152-2.464-.832-4.32-2.032-5.568-3.6-1.248-1.568-1.856-3.44-1.824-5.616.032-2.176.816-4.608 2.352-7.296a32.13 32.13 0 0 1 3.456-4.848 35.152 35.152 0 0 1 4.56-4.416 42.909 42.909 0 0 1 5.424-3.744 37.221 37.221 0 0 1 6.048-2.832c.768-.256 1.696-.416 2.784-.48 1.088-.064 2.016-.032 2.784.096 1.472.192 2.544.656 3.216 1.392.672.736 1.04 1.552 1.104 2.448 0 .896-.304 1.744-.912 2.544-.608.8-1.456 1.296-2.544 1.488-.768.192-1.6.24-2.496.144a11.671 11.671 0 0 1-2.688-.624c-1.152.32-2.416.864-3.792 1.632a23.307 23.307 0 0 0-3.984 2.832 38.226 38.226 0 0 0-3.6 3.6c-1.12 1.28-2 2.56-2.64 3.84-.512.96-.784 1.904-.816 2.832-.032.928.24 1.744.816 2.448s1.424 1.264 2.544 1.68c1.12.416 2.576.624 4.368.624 3.2 0 6.352-.288 9.456-.864 3.104-.576 5.984-1.28 8.64-2.112 2.656-.832 4.96-1.696 6.912-2.592 1.952-.896 3.376-1.6 4.272-2.112.96-.512 1.872-.656 2.736-.432a3.585 3.585 0 0 1 2.064 1.392zm11.616-35.904c-.192-3.52-.832-5.408-1.92-5.664-1.024-.32-2.432.896-4.224 3.648-.832 1.28-1.664 2.864-2.496 4.752a65.756 65.756 0 0 0-2.352 6.24 54.886 54.886 0 0 0-1.776 7.104 47.336 47.336 0 0 0-.768 7.152c-.128 3.264.32 6.24 1.344 8.928a123.379 123.379 0 0 0 4.992-6.384 36.185 36.185 0 0 0 4.128-7.248c.384-.96.784-2.192 1.2-3.696.416-1.504.768-3.12 1.056-4.848.288-1.728.512-3.456.672-5.184.16-1.728.208-3.328.144-4.8zm23.424 38.304c.32.832.304 1.712-.048 2.64-.352.928-1.168 1.648-2.448 2.16l-6.384 2.208a74.738 74.738 0 0 1-8.208 2.304 50.257 50.257 0 0 1-8.736 1.152c-2.944.128-5.6-.288-7.968-1.248-4.032-1.664-6.784-4.576-8.256-8.736-1.472-4.16-2.176-9.344-2.112-15.552 0-2.688.256-5.472.768-8.352s1.2-5.648 2.064-8.304a60.823 60.823 0 0 1 2.976-7.488c1.12-2.336 2.256-4.336 3.408-6 2.048-2.88 4.08-5.024 6.096-6.432 2.016-1.408 3.92-1.952 5.712-1.632 1.92.256 3.504 1.488 4.752 3.696 1.248 2.208 2 5.488 2.256 9.84.128 1.728.128 3.6 0 5.616a57.467 57.467 0 0 1-.72 6.096 60.524 60.524 0 0 1-1.344 6c-.544 1.952-1.168 3.728-1.872 5.328a40.862 40.862 0 0 1-2.64 5.136 62.05 62.05 0 0 1-3.12 4.656 64.345 64.345 0 0 1-3.312 4.128 132.506 132.506 0 0 1-3.216 3.552c.384.32.976.704 1.776 1.152.8.448 1.552.736 2.256.864 1.6.256 3.36.272 5.28.048a47.038 47.038 0 0 0 5.952-1.104 102.898 102.898 0 0 0 6.24-1.776c2.112-.672 4.128-1.36 6.048-2.064 1.088-.384 2.08-.352 2.976.096.896.448 1.504 1.12 1.824 2.016zm49.344-.192c.64.832.88 1.792.72 2.88-.16 1.088-.752 1.952-1.776 2.592-2.176 1.216-4.656 2.32-7.44 3.312-2.784.992-5.36 1.616-7.728 1.872-2.816.256-4.976.096-6.48-.48-1.504-.576-2.8-1.696-3.888-3.36-.448-.576-.848-1.44-1.2-2.592-.352-1.152-.528-2.176-.528-3.072-.064-.512-.304-.816-.72-.912-.416-.096-.88.048-1.392.432-.704.448-1.552 1.072-2.544 1.872s-2.048 1.68-3.168 2.64c-1.12.96-2.256 1.952-3.408 2.976a97.22 97.22 0 0 1-3.264 2.784c-2.432 1.856-4.704 2.832-6.816 2.928-2.112.096-3.84-.464-5.184-1.68-1.664-1.472-2.496-3.68-2.496-6.624.064-1.408.288-2.8.672-4.176a22.28 22.28 0 0 1 1.536-3.984 36.09 36.09 0 0 1 3.552-5.664 59.075 59.075 0 0 1 4.464-5.232 54.774 54.774 0 0 1 4.752-4.416c1.6-1.312 3.072-2.416 4.416-3.312a81.655 81.655 0 0 1 3.936-2.448 17.63 17.63 0 0 1 4.752-1.92c1.696-.416 3.472-.496 5.328-.24 1.856.256 3.712 1.152 5.568 2.688.832.704 1.28 1.472 1.344 2.304a4.06 4.06 0 0 1-.48 2.304c-.512.896-1.328 1.488-2.448 1.776-1.12.288-2.192.112-3.216-.528-1.472-1.152-3.088-1.584-4.848-1.296-1.76.288-3.824 1.232-6.192 2.832-1.152.768-2.448 1.776-3.888 3.024a50.02 50.02 0 0 0-4.176 4.08 63.613 63.613 0 0 0-3.792 4.56c-1.184 1.568-2.128 3.088-2.832 4.56-.384.768-.64 1.696-.768 2.784-.128 1.088.064 1.824.576 2.208.704.576 1.728.288 3.072-.864.96-.832 2.16-1.856 3.6-3.072a306.067 306.067 0 0 1 4.464-3.696 202.637 202.637 0 0 1 4.56-3.6c1.504-1.152 2.832-2.08 3.984-2.784a9.937 9.937 0 0 1 2.928-1.2c.992-.224 1.872-.24 2.64-.048a3.061 3.061 0 0 1 1.824 1.248c.448.64.672 1.504.672 2.592-.064 1.28-.048 2.48.048 3.6s.304 2.096.624 2.928c.384 1.088.912 1.824 1.584 2.208.672.384 1.552.544 2.64.48a28.204 28.204 0 0 0 2.88-.624 42.423 42.423 0 0 0 3.264-1.008 95.41 95.41 0 0 0 3.216-1.2 34.296 34.296 0 0 0 2.736-1.2c.96-.448 1.792-.576 2.496-.384a3.71 3.71 0 0 1 1.824 1.152zm40.32-16.032c.128 1.472.192 3.392.192 5.76s-.096 5.008-.288 7.92a439.4 439.4 0 0 1-.72 9.312c-.288 3.296-.656 6.64-1.104 10.032a477.296 477.296 0 0 1-1.44 10.08 156.108 156.108 0 0 1-1.728 9.408c-.256 1.28-.832 2.176-1.728 2.688s-1.792.672-2.688.48c-.96-.128-1.744-.592-2.352-1.392-.608-.8-.752-1.872-.432-3.216.768-3.008 1.44-6.368 2.016-10.08a210.405 210.405 0 0 0 1.44-11.328c.384-3.84.688-7.6.912-11.28.224-3.68.368-6.992.432-9.936.064-.576 0-.992-.192-1.248s-.464-.416-.816-.48c-.352-.064-.72 0-1.104.192a4.052 4.052 0 0 0-1.056.768c-1.024.96-2.304 2.112-3.84 3.456a267.573 267.573 0 0 1-4.896 4.176 157.265 157.265 0 0 1-5.232 4.176 80.962 80.962 0 0 1-4.848 3.456c-2.688 1.664-5.264 2.704-7.728 3.12-2.464.416-4.784-.24-6.96-1.968-.768-.704-1.52-1.664-2.256-2.88-.736-1.216-1.136-2.848-1.2-4.896 0-1.536.24-3.184.72-4.944a32.881 32.881 0 0 1 1.872-5.136 44.304 44.304 0 0 1 2.448-4.608c.864-1.408 1.648-2.528 2.352-3.36.704-.896 1.536-1.408 2.496-1.536.96-.128 1.792-.032 2.496.288 1.024.512 1.664 1.264 1.92 2.256.256.992-.096 2.096-1.056 3.312-.576.704-1.184 1.6-1.824 2.688a56.158 56.158 0 0 0-1.824 3.36A22.302 22.302 0 0 0 204.18 441c-.352 1.152-.528 2.176-.528 3.072 0 .704.128 1.264.384 1.68.256.416.512.752.768 1.008.576.576 1.328.768 2.256.576.928-.192 2.032-.704 3.312-1.536 1.92-1.216 3.92-2.64 6-4.272 2.08-1.632 4.176-3.36 6.288-5.184a261.345 261.345 0 0 0 6.192-5.52 344.75 344.75 0 0 0 5.616-5.28c.768-.832 1.696-1.344 2.784-1.536 1.088-.192 2.112-.128 3.072.192.832.32 1.552.864 2.16 1.632.608.768.976 1.792 1.104 3.072zm68.256-22.08c-.192-3.52-.832-5.408-1.92-5.664-1.024-.32-2.432.896-4.224 3.648-.832 1.28-1.664 2.864-2.496 4.752a65.756 65.756 0 0 0-2.352 6.24 54.886 54.886 0 0 0-1.776 7.104 47.336 47.336 0 0 0-.768 7.152c-.128 3.264.32 6.24 1.344 8.928a123.379 123.379 0 0 0 4.992-6.384 36.185 36.185 0 0 0 4.128-7.248c.384-.96.784-2.192 1.2-3.696.416-1.504.768-3.12 1.056-4.848.288-1.728.512-3.456.672-5.184.16-1.728.208-3.328.144-4.8zm23.424 38.304c.32.832.304 1.712-.048 2.64-.352.928-1.168 1.648-2.448 2.16l-6.384 2.208a74.738 74.738 0 0 1-8.208 2.304 50.257 50.257 0 0 1-8.736 1.152c-2.944.128-5.6-.288-7.968-1.248-4.032-1.664-6.784-4.576-8.256-8.736-1.472-4.16-2.176-9.344-2.112-15.552 0-2.688.256-5.472.768-8.352s1.2-5.648 2.064-8.304a60.823 60.823 0 0 1 2.976-7.488c1.12-2.336 2.256-4.336 3.408-6 2.048-2.88 4.08-5.024 6.096-6.432 2.016-1.408 3.92-1.952 5.712-1.632 1.92.256 3.504 1.488 4.752 3.696 1.248 2.208 2 5.488 2.256 9.84.128 1.728.128 3.6 0 5.616a57.467 57.467 0 0 1-.72 6.096 60.524 60.524 0 0 1-1.344 6c-.544 1.952-1.168 3.728-1.872 5.328a40.862 40.862 0 0 1-2.64 5.136 62.05 62.05 0 0 1-3.12 4.656 64.345 64.345 0 0 1-3.312 4.128 132.506 132.506 0 0 1-3.216 3.552c.384.32.976.704 1.776 1.152.8.448 1.552.736 2.256.864 1.6.256 3.36.272 5.28.048a47.038 47.038 0 0 0 5.952-1.104 102.898 102.898 0 0 0 6.24-1.776c2.112-.672 4.128-1.36 6.048-2.064 1.088-.384 2.08-.352 2.976.096.896.448 1.504 1.12 1.824 2.016zm49.344-.192c.64.832.88 1.792.72 2.88-.16 1.088-.752 1.952-1.776 2.592-2.176 1.216-4.656 2.32-7.44 3.312-2.784.992-5.36 1.616-7.728 1.872-2.816.256-4.976.096-6.48-.48-1.504-.576-2.8-1.696-3.888-3.36-.448-.576-.848-1.44-1.2-2.592-.352-1.152-.528-2.176-.528-3.072-.064-.512-.304-.816-.72-.912-.416-.096-.88.048-1.392.432-.704.448-1.552 1.072-2.544 1.872s-2.048 1.68-3.168 2.64c-1.12.96-2.256 1.952-3.408 2.976a97.22 97.22 0 0 1-3.264 2.784c-2.432 1.856-4.704 2.832-6.816 2.928-2.112.096-3.84-.464-5.184-1.68-1.664-1.472-2.496-3.68-2.496-6.624.064-1.408.288-2.8.672-4.176a22.28 22.28 0 0 1 1.536-3.984 36.09 36.09 0 0 1 3.552-5.664 59.075 59.075 0 0 1 4.464-5.232 54.774 54.774 0 0 1 4.752-4.416c1.6-1.312 3.072-2.416 4.416-3.312a81.655 81.655 0 0 1 3.936-2.448 17.63 17.63 0 0 1 4.752-1.92c1.696-.416 3.472-.496 5.328-.24 1.856.256 3.712 1.152 5.568 2.688.832.704 1.28 1.472 1.344 2.304a4.06 4.06 0 0 1-.48 2.304c-.512.896-1.328 1.488-2.448 1.776-1.12.288-2.192.112-3.216-.528-1.472-1.152-3.088-1.584-4.848-1.296-1.76.288-3.824 1.232-6.192 2.832-1.152.768-2.448 1.776-3.888 3.024a50.02 50.02 0 0 0-4.176 4.08 63.613 63.613 0 0 0-3.792 4.56c-1.184 1.568-2.128 3.088-2.832 4.56-.384.768-.64 1.696-.768 2.784-.128 1.088.064 1.824.576 2.208.704.576 1.728.288 3.072-.864.96-.832 2.16-1.856 3.6-3.072a306.067 306.067 0 0 1 4.464-3.696 202.637 202.637 0 0 1 4.56-3.6c1.504-1.152 2.832-2.08 3.984-2.784a9.937 9.937 0 0 1 2.928-1.2c.992-.224 1.872-.24 2.64-.048a3.061 3.061 0 0 1 1.824 1.248c.448.64.672 1.504.672 2.592-.064 1.28-.048 2.48.048 3.6s.304 2.096.624 2.928c.384 1.088.912 1.824 1.584 2.208.672.384 1.552.544 2.64.48a28.204 28.204 0 0 0 2.88-.624 42.423 42.423 0 0 0 3.264-1.008 95.41 95.41 0 0 0 3.216-1.2 34.296 34.296 0 0 0 2.736-1.2c.96-.448 1.792-.576 2.496-.384a3.71 3.71 0 0 1 1.824 1.152zm31.104-19.776c1.344 1.536 1.952 3.6 1.824 6.192-.128 2.592-.992 5.328-2.592 8.208-.768 1.6-1.744 3.264-2.928 4.992a44.249 44.249 0 0 1-3.888 4.896 44.862 44.862 0 0 1-7.44 6.48 249.041 249.041 0 0 1-8.304 5.52c-.96.64-1.888.832-2.784.576-.896-.256-1.6-.8-2.112-1.632-.448-.768-.576-1.648-.384-2.64.192-.992.672-1.744 1.44-2.256a241.382 241.382 0 0 0 8.16-5.424c2.432-1.696 4.544-3.6 6.336-5.712a37.419 37.419 0 0 0 3.216-4.128c.992-1.472 1.744-2.816 2.256-4.032.576-1.216.96-2.256 1.152-3.12.192-.864.032-1.648-.48-2.352-.32-.448-.8-.752-1.44-.912-.64-.16-1.568-.176-2.784-.048-1.664.192-3.648.672-5.952 1.44a35.167 35.167 0 0 0-6.72 3.072 20.943 20.943 0 0 0-3.168 2.304c-1.024.896-1.792 1.888-2.304 2.976-.128.32-.24.624-.336.912l-.336 1.008a14.773 14.773 0 0 0-.144 2.64c.032.864.08 1.68.144 2.448-.064 1.152-.432 2.032-1.104 2.64-.672.608-1.424.944-2.256 1.008-.832.064-1.616-.192-2.352-.768-.736-.576-1.232-1.472-1.488-2.688-.384-1.856-.624-4.048-.72-6.576a112.832 112.832 0 0 1 0-8.064c.096-2.848.272-5.792.528-8.832.256-3.04.56-5.968.912-8.784.352-2.816.72-5.456 1.104-7.92.384-2.464.768-4.592 1.152-6.384.192-1.024.4-1.936.624-2.736.224-.8.592-1.552 1.104-2.256.896-1.28 2.144-1.856 3.744-1.728.96 0 1.76.272 2.4.816.64.544.896 1.328.768 2.352a5.905 5.905 0 0 1-.672 2.256c-.384.736-.64 1.328-.768 1.776a303.64 303.64 0 0 0-1.008 6.288 426.157 426.157 0 0 0-1.056 7.488 201.026 201.026 0 0 0-.912 8.208c-.256 2.816-.448 5.6-.576 8.352.64-.768 1.472-1.52 2.496-2.256a22.575 22.575 0 0 1 3.072-1.872c1.792-.896 3.936-1.776 6.432-2.64a37.39 37.39 0 0 1 7.488-1.776c2.56-.384 4.72-.304 6.48.24 1.76.544 3.152 1.36 4.176 2.448zm38.496-5.472c-.384.576-.912 1.024-1.584 1.344-.672.32-1.456.32-2.352 0a13.18 13.18 0 0 1-2.688-1.344c-.896 0-2.048.176-3.456.528-1.408.352-2.88.816-4.416 1.392a51.551 51.551 0 0 0-4.56 1.968c-1.504.736-2.8 1.488-3.888 2.256-1.664 1.088-2.528 2.112-2.592 3.072 0 .832.768 1.664 2.304 2.496a92.153 92.153 0 0 0 5.664 2.784c1.856.832 3.872 2.08 6.048 3.744 1.472 1.216 2.528 2.688 3.168 4.416.64 1.728.96 3.424.96 5.088 0 1.792-.288 3.568-.864 5.328-.576 1.76-1.344 3.344-2.304 4.752-1.664 2.56-3.664 4.96-6 7.2s-5.136 4.256-8.4 6.048c-1.472.832-3.008 1.248-4.608 1.248-1.536 0-3.04-.352-4.512-1.056-1.344-.704-2.16-1.6-2.448-2.688-.288-1.088-.24-2.08.144-2.976.448-.96 1.168-1.616 2.16-1.968.992-.352 2.096-.144 3.312.624.512.384 1.088.56 1.728.528a3.536 3.536 0 0 0 1.728-.528c2.112-1.28 4.176-2.864 6.192-4.752s3.568-3.728 4.656-5.52c.704-1.088 1.216-2.144 1.536-3.168.32-1.024.48-1.984.48-2.88.064-1.6-.48-2.976-1.632-4.128-1.216-1.088-2.848-2.128-4.896-3.12a244.796 244.796 0 0 0-6.72-3.12c-2.176-.896-3.808-2.016-4.896-3.36-1.088-1.344-1.632-2.784-1.632-4.32 0-1.472.576-3.008 1.728-4.608 1.152-1.6 2.88-3.136 5.184-4.608 1.216-.832 2.656-1.696 4.32-2.592a50.008 50.008 0 0 1 5.28-2.448 47.368 47.368 0 0 1 5.808-1.872c2.016-.512 3.984-.8 5.904-.864 1.28-.064 2.432.112 3.456.528 1.024.416 1.824.976 2.4 1.68.704.768 1.056 1.6 1.056 2.496 0 .896-.256 1.696-.768 2.4z" fill="#636363" fill-rule="nonzero"/><path d="M138.412 130.478c25.843 11.685 68.912 19.336 117.676 19.336 49.23 0 92.654-7.797 118.41-19.67 36.75 24.46 59.914 60.182 59.914 99.97 0 73.737-79.562 133.513-177.706 133.513C158.562 363.627 79 303.85 79 230.113c0-39.606 22.954-75.184 59.412-99.635zm118.325.926c-67.474 0-122.172-15.984-122.172-35.702C134.565 75.984 189.263 60 256.737 60c67.474 0 122.172 15.984 122.172 35.702 0 19.718-54.698 35.702-122.172 35.702z" fill="#FF861E"/></g></svg>
