<?xml version="1.0" encoding="UTF-8" standalone="no"?>
<!-- Created with Inkscape (http://www.inkscape.org/) -->
<svg
   xmlns:svg="http://www.w3.org/2000/svg"
   xmlns="http://www.w3.org/2000/svg"
   version="1.0"
   viewBox="0 -2 10 18"
   style="width: 250px;height: 125px;"
   id="svg30986"
   xml:space="preserve">
 <defs
   id="defs30988">
  <style
   type="text/css"
   id="style30990" />
 </defs>
 <g
   transform="matrix(19.77692,0,0,19.77692,-18.2813,-4.399051)"
   id="Layer_x0020_1">
  
  <polygon
   points="0.823516,0.499555 0.823516,0.46548 0.93537,0.385075 0.826331,0.385075 0.826331,0.351445 1.00148,0.351445 1.00148,0.38537 0.888071,0.465925 1.00333,0.465925 1.00333,0.499555 0.823516,0.499555 "
   style="fill:#1f1a17;fill-rule:nonzero"
   id="polygon30994" />
  <polygon
   points="1.03511,0.499555 1.03511,0.351445 1.08026,0.351445 1.08026,0.499555 1.03511,0.499555 "
   style="fill:#1f1a17;fill-rule:nonzero"
   id="polygon30996" />
  <polygon
   points="1.11874,0.499555 1.11874,0.351445 1.16389,0.351445 1.16389,0.463 1.26588,0.463 1.26588,0.499555 1.11874,0.499555 "
   style="fill:#1f1a17;fill-rule:nonzero"
   id="polygon30998" />
  <path
   d="M 1.38566,0.349925 C 1.4233254,0.349925 1.4463608,0.35070453 1.4547702,0.35222421 C 1.47366,0.35559429 1.4853608,0.36533441 1.4899159,0.38140921 C 1.4915852,0.3872596 1.4925852,0.39518481 1.4929553,0.40514941 C 1.4931757,0.410925 1.493286,0.41807461 1.493286,0.42651951 C 1.493286,0.44518491 1.4921403,0.45888961 1.4898057,0.46766521 C 1.4846954,0.48711011 1.4696955,0.49781481 1.4448805,0.49977541 C 1.4338805,0.50062974 1.4159553,0.50107462 1.3910655,0.50107462 C 1.3695852,0.50107462 1.3565498,0.50096045 1.3519198,0.50073997 C 1.3343253,0.49996045 1.3215852,0.49766517 1.3136954,0.49392501 C 1.3026245,0.48870454 1.29566,0.47825961 1.2927702,0.46255491 C 1.2915497,0.45588956 1.2909198,0.44336991 1.2909198,0.42499981 C 1.2909198,0.41255491 1.29103,0.40466521 1.2912505,0.40125961 C 1.2918095,0.39229504 1.2932899,0.38459421 1.2956954,0.37814941 C 1.3014001,0.36274001 1.3156954,0.35385411 1.3385497,0.35155491 C 1.3493253,0.35048011 1.36503,0.34992499 1.3856599,0.34992499 L 1.38566,0.349925 z M 1.3919198,0.3860746 C 1.3679907,0.3860746 1.3532151,0.38722421 1.34766,0.38955491 C 1.3424356,0.39170452 1.3390656,0.39685019 1.3375498,0.40496431 C 1.3369199,0.40844462 1.3365853,0.41492494 1.3365853,0.42448001 C 1.3365853,0.43699971 1.3373648,0.44588941 1.3388806,0.45118471 C 1.341105,0.45899967 1.3482506,0.46333431 1.3603649,0.46418471 C 1.3673649,0.4647044 1.3758806,0.46496424 1.3858452,0.46496424 C 1.4127704,0.46496424 1.4291405,0.4640351 1.4350302,0.46214928 C 1.4415853,0.46003511 1.4457704,0.45459022 1.4475105,0.44573988 C 1.4481404,0.4424446 1.448475,0.43499968 1.448475,0.42351938 C 1.448475,0.41470442 1.4482506,0.40873988 1.4478057,0.40570438 C 1.4465853,0.39718469 1.4431049,0.39162958 1.4374002,0.38910988 C 1.4340656,0.38759413 1.4271049,0.38662957 1.416475,0.38618468 C 1.4147349,0.38610987 1.4065498,0.38607444 1.3919199,0.38607444 L 1.3919198,0.3860746 z "
   style="fill:#1f1a17;fill-rule:nonzero"
   id="path31000" />
  <path
   d="M 1.71869,0.40148 L 1.6745404,0.40148 C 1.6740955,0.3907792 1.6679853,0.385295 1.6562097,0.3850745 C 1.6535798,0.3850745 1.64969,0.3850745 1.6444695,0.3850745 L 1.6286545,0.3850745 C 1.623875,0.3849997 1.6180246,0.38503907 1.61106,0.38518474 L 1.5967254,0.38540914 C 1.5886545,0.38540914 1.5828002,0.38659418 1.5792845,0.38896426 C 1.5749499,0.39185009 1.5724302,0.39710993 1.5718003,0.40477926 C 1.5713554,0.4098895 1.5711349,0.41788947 1.5711349,0.42877927 C 1.5711349,0.44240527 1.5722451,0.45136987 1.574505,0.45562967 C 1.5779853,0.46225959 1.5865404,0.46581467 1.6002097,0.46633437 C 1.6021703,0.46640523 1.6138003,0.4664446 1.6351349,0.4664446 C 1.6474302,0.4664446 1.6549499,0.46629499 1.65769,0.46599972 C 1.6638396,0.4653698 1.6682451,0.46373988 1.670875,0.46118476 C 1.6735049,0.45862964 1.6748395,0.454295 1.6748395,0.44822016 C 1.6748395,0.44729496 1.6748002,0.44581465 1.6747254,0.44377922 L 1.61769,0.44377922 L 1.61769,0.41610992 L 1.71869,0.41610992 L 1.71869,0.43662962 C 1.71869,0.45318472 1.7179104,0.46503512 1.7163947,0.47218472 C 1.7125797,0.49036972 1.6987648,0.49973982 1.6749498,0.50040522 C 1.6696151,0.50055483 1.6507648,0.50062963 1.6184301,0.50062963 C 1.5973199,0.50062963 1.58206,0.50025955 1.5726545,0.49955483 C 1.5501348,0.49781467 1.53606,0.48896423 1.5304301,0.47296423 C 1.5273947,0.46436974 1.525875,0.44922013 1.525875,0.42751933 C 1.525875,0.40333433 1.5276899,0.38659413 1.5312844,0.37725953 C 1.5358002,0.36570443 1.544875,0.35814933 1.5585403,0.35459413 C 1.5693946,0.35177917 1.5918001,0.35036972 1.6258001,0.35036972 C 1.6522095,0.35036972 1.6700954,0.3508146 1.6793946,0.35166893 C 1.7003198,0.35362956 1.7127253,0.36229493 1.7166151,0.37770433 C 1.7179852,0.38314921 1.7186899,0.39107443 1.7186899,0.40147993 L 1.71869,0.40148 z "
   style="fill:#1f1a17;fill-rule:nonzero"
   id="path31002" />
  <polygon
   points="1.75428,0.499555 1.75428,0.351445 1.79943,0.351445 1.79943,0.499555 1.75428,0.499555 "
   style="fill:#1f1a17;fill-rule:nonzero"
   id="polygon31004" />
  <path
   d="M 1.97995,0.44378 L 2.0235799,0.44378 L 2.0235799,0.45052016 C 2.0235799,0.46433516 2.02195,0.47444536 2.0186901,0.48077606 C 2.0145051,0.48911071 2.0063948,0.49470516 1.9943948,0.49752016 C 1.9884696,0.49889024 1.9796546,0.49977607 1.9680247,0.50022095 C 1.9600602,0.50048079 1.9442845,0.5006304 1.9206901,0.5006304 C 1.9013948,0.5006304 1.8866901,0.49996111 1.8765444,0.49866583 C 1.85732,0.49622095 1.8451743,0.48766583 1.8402098,0.47307523 C 1.8367295,0.46296503 1.8349894,0.44596503 1.8349894,0.42207523 C 1.8349894,0.40355553 1.8360642,0.39063033 1.8382492,0.38326023 C 1.842135,0.37000043 1.8505051,0.36096493 1.8633201,0.35611063 C 1.8734343,0.35229567 1.8938398,0.35037047 1.9245051,0.35037047 C 1.9632846,0.35037047 1.98695,0.35166968 1.9955799,0.35426023 C 2.0058397,0.35737047 2.0129854,0.36300039 2.01695,0.37107523 C 2.0200602,0.37744531 2.0216154,0.38648073 2.0216154,0.39822483 L 2.0216154,0.4032957 L 1.9785445,0.4032957 C 1.9781744,0.39840987 1.9774303,0.39492562 1.9762452,0.3928902 C 1.9740248,0.38900044 1.9675051,0.38666579 1.9567295,0.385965 C 1.95595,0.3858902 1.9487295,0.38585083 1.935135,0.38585083 C 1.9135799,0.38585083 1.9008397,0.38622484 1.89695,0.38692563 C 1.8865445,0.3888902 1.8808791,0.39585083 1.8800248,0.40777993 C 1.8797296,0.41181536 1.87958,0.41826023 1.87958,0.42707523 C 1.87958,0.44344533 1.8816548,0.45370513 1.885765,0.45789023 C 1.8890997,0.46129574 1.89558,0.46344535 1.9051744,0.46429574 C 1.9084342,0.46459101 1.9154697,0.46474062 1.9262453,0.46474062 C 1.9516193,0.46474062 1.9666154,0.46377999 1.9711744,0.46181542 C 1.9768752,0.45933511 1.9798004,0.45333511 1.97995,0.44378002 L 1.97995,0.44378 z "
   style="fill:#1f1a17;fill-rule:nonzero"
   id="path31006" />
  <path
   d="M 0.819331,0.629945 L 0.8414609,0.629945 C 0.8415357,0.63207098 0.84172074,0.63355524 0.84200027,0.6343702 C 0.84251602,0.63581508 0.8435357,0.6367954 0.84509082,0.6372954 C 0.84637035,0.63774028 0.84839003,0.63798044 0.85116562,0.63805524 L 0.85990578,0.63833083 C 0.86120106,0.6383702 0.86674043,0.6382954 0.87651598,0.63811036 C 0.88044511,0.63803556 0.8832207,0.63774028 0.88481519,0.63720091 C 0.88777582,0.63618516 0.88926007,0.63418516 0.88926007,0.63118516 C 0.88926007,0.62746075 0.88709078,0.62531508 0.88274038,0.62474028 C 0.88166558,0.62459068 0.8778703,0.62451587 0.87135058,0.62451587 L 0.85096078,0.62451587 C 0.84090568,0.62451587 0.83411038,0.62396076 0.83055528,0.62288595 C 0.82607497,0.62151587 0.82292536,0.61890564 0.8211104,0.61507099 C 0.81974032,0.61214579 0.81905528,0.60798044 0.81905528,0.60259069 C 0.81905528,0.59398045 0.82105528,0.58805529 0.82507497,0.58479539 C 0.82840568,0.58205523 0.83464584,0.58025996 0.84379547,0.57942531 C 0.84740571,0.57911035 0.85461047,0.578945 0.86538607,0.578945 C 0.88079547,0.578945 0.89046087,0.5793702 0.89440577,0.58024028 C 0.89964593,0.58140563 0.90337034,0.58359067 0.90553567,0.58681508 C 0.90751598,0.58974028 0.90851598,0.59396075 0.90851598,0.59950008 L 0.90851598,0.6020552 L 0.88653568,0.6020552 C 0.88650025,0.59822055 0.88448056,0.59588591 0.88046088,0.5950552 C 0.8795908,0.59487016 0.87600025,0.59477567 0.86966558,0.59477567 C 0.86081519,0.59477567 0.85398058,0.59494496 0.84922068,0.59527567 C 0.84661044,0.59546071 0.84474037,0.59587016 0.84363013,0.59651583 C 0.84203564,0.59746071 0.84124037,0.59909063 0.84124037,0.60140559 C 0.84124037,0.60451583 0.84283092,0.60650008 0.84601596,0.60733079 C 0.84738998,0.60768512 0.85042541,0.60787016 0.85513013,0.60787016 L 0.87613013,0.60787016 C 0.87753564,0.60787016 0.88122068,0.6079804 0.88720103,0.60818512 C 0.89414591,0.60844497 0.89903563,0.60916544 0.90190573,0.61035047 C 0.9083703,0.61307094 0.91161045,0.61979535 0.91161045,0.63053547 C 0.91161045,0.64048035 0.90890573,0.64692527 0.90348053,0.64988587 C 0.89837029,0.65268508 0.88522073,0.65407091 0.86403563,0.65407091 C 0.84787023,0.65407091 0.83726003,0.65355516 0.83224033,0.65250004 C 0.82735057,0.65148035 0.82390568,0.64933075 0.82187023,0.64603547 C 0.82014582,0.64322051 0.81927574,0.63916539 0.81927574,0.63383077 C 0.81927574,0.63325597 0.81929543,0.63196069 0.81933086,0.62994494 L 0.819331,0.629945 z "
   style="fill:#de411a;fill-rule:nonzero"
   id="path31008" />
  <polygon
   points="1.03729,0.653535 1.03729,0.62787 0.994917,0.57948 1.02373,0.57948 1.04873,0.61013 1.07353,0.57948 1.10175,0.57948 1.05997,0.62787 1.05997,0.653535 1.03729,0.653535 "
   style="fill:#de411a;fill-rule:nonzero"
   id="polygon31010" />
  <path
   d="M 1.18657,0.629945 L 1.2086999,0.629945 C 1.2087747,0.63207098 1.2089597,0.63355524 1.2092393,0.6343702 C 1.209755,0.63581508 1.2107747,0.6367954 1.2123298,0.6372954 C 1.2136094,0.63774028 1.215629,0.63798044 1.2184046,0.63805524 L 1.2271448,0.63833083 C 1.2284401,0.6383702 1.2339794,0.6382954 1.243755,0.63811036 C 1.2476841,0.63803556 1.2504597,0.63774028 1.2520542,0.63720091 C 1.2550148,0.63618516 1.2564991,0.63418516 1.2564991,0.63118516 C 1.2564991,0.62746075 1.2543298,0.62531508 1.2499794,0.62474028 C 1.2489046,0.62459068 1.2451093,0.62451587 1.2385896,0.62451587 L 1.2181998,0.62451587 C 1.2081447,0.62451587 1.2013494,0.62396076 1.1977943,0.62288595 C 1.193314,0.62151587 1.1901644,0.61890564 1.1883494,0.61507099 C 1.1869793,0.61214579 1.1862943,0.60798044 1.1862943,0.60259069 C 1.1862943,0.59398045 1.1882943,0.58805529 1.192314,0.58479539 C 1.1956447,0.58205523 1.2018848,0.58025996 1.2110345,0.57942531 C 1.2146447,0.57911035 1.2218495,0.578945 1.2326251,0.578945 C 1.2480345,0.578945 1.2576999,0.5793702 1.2616448,0.58024028 C 1.2668849,0.58140563 1.2706093,0.58359067 1.2727747,0.58681508 C 1.274755,0.58974028 1.275755,0.59396075 1.275755,0.59950008 L 1.275755,0.6020552 L 1.2537747,0.6020552 C 1.2537392,0.59822055 1.2517196,0.59588591 1.2476999,0.5950552 C 1.2468298,0.59487016 1.2432393,0.59477567 1.2369046,0.59477567 C 1.2280542,0.59477567 1.2212196,0.59494496 1.2164597,0.59527567 C 1.2138494,0.59546071 1.2119794,0.59587016 1.2108691,0.59651583 C 1.2092746,0.59746071 1.2084794,0.59909063 1.2084794,0.60140559 C 1.2084794,0.60451583 1.2100699,0.60650008 1.213255,0.60733079 C 1.214629,0.60768512 1.2176644,0.60787016 1.2223691,0.60787016 L 1.2433691,0.60787016 C 1.2447746,0.60787016 1.2484597,0.6079804 1.25444,0.60818512 C 1.2613849,0.60844497 1.2662746,0.60916544 1.2691447,0.61035047 C 1.2756093,0.61307094 1.2788494,0.61979535 1.2788494,0.63053547 C 1.2788494,0.64048035 1.2761447,0.64692527 1.2707195,0.64988587 C 1.2656093,0.65268508 1.2524597,0.65407091 1.2312746,0.65407091 C 1.2151092,0.65407091 1.204499,0.65355516 1.1994793,0.65250004 C 1.1945896,0.65148035 1.1911447,0.64933075 1.1891092,0.64603547 C 1.1873848,0.64322051 1.1865147,0.63916539 1.1865147,0.63383077 C 1.1865147,0.63325597 1.1865344,0.63196069 1.1865699,0.62994494 L 1.18657,0.629945 z "
   style="fill:#de411a;fill-rule:nonzero"
   id="path31012" />
  <polygon
   points="1.39991,0.653535 1.39991,0.59776 1.36693,0.59776 1.36693,0.57948 1.45547,0.57948 1.45547,0.59776 1.42248,0.59776 1.42248,0.653535 1.39991,0.653535 "
   style="fill:#de411a;fill-rule:nonzero"
   id="polygon31014" />
  <polygon
   points="1.54436,0.57948 1.62646,0.57948 1.62646,0.596295 1.56661,0.596295 1.56661,0.608945 1.62309,0.608945 1.62309,0.623591 1.56661,0.623591 1.56661,0.63672 1.62722,0.63672 1.62722,0.653535 1.54436,0.653535 1.54436,0.57948 "
   style="fill:#de411a;fill-rule:nonzero"
   id="polygon31016" />
  <polygon
   points="1.72019,0.653535 1.72019,0.57948 1.75596,0.57948 1.78302,0.628646 1.80993,0.57948 1.84546,0.57948 1.84546,0.653535 1.82344,0.653535 1.82452,0.59635 1.79169,0.653535 1.77369,0.653535 1.74135,0.59635 1.74194,0.653535 1.72019,0.653535 "
   style="fill:#de411a;fill-rule:nonzero"
   id="polygon31018" />
  <path
   d="M 1.93982,0.629945 L 1.9619499,0.629945 C 1.9620247,0.63207098 1.9622097,0.63355524 1.9624893,0.6343702 C 1.963005,0.63581508 1.9640247,0.6367954 1.9655798,0.6372954 C 1.9668594,0.63774028 1.968879,0.63798044 1.9716546,0.63805524 L 1.9803948,0.63833083 C 1.9816901,0.6383702 1.9872294,0.6382954 1.997005,0.63811036 C 2.0009341,0.63803556 2.0037097,0.63774028 2.0053042,0.63720091 C 2.0082648,0.63618516 2.0097491,0.63418516 2.0097491,0.63118516 C 2.0097491,0.62746075 2.0075798,0.62531508 2.0032294,0.62474028 C 2.0021546,0.62459068 1.9983593,0.62451587 1.9918396,0.62451587 L 1.9714498,0.62451587 C 1.9613947,0.62451587 1.9545994,0.62396076 1.9510443,0.62288595 C 1.946564,0.62151587 1.9434144,0.61890564 1.9415994,0.61507099 C 1.9402293,0.61214579 1.9395443,0.60798044 1.9395443,0.60259069 C 1.9395443,0.59398045 1.9415443,0.58805529 1.945564,0.58479539 C 1.9488947,0.58205523 1.9551348,0.58025996 1.9642845,0.57942531 C 1.9678947,0.57911035 1.9750995,0.578945 1.9858751,0.578945 C 2.0012845,0.578945 2.0109499,0.5793702 2.0148948,0.58024028 C 2.0201349,0.58140563 2.0238593,0.58359067 2.0260247,0.58681508 C 2.028005,0.58974028 2.029005,0.59396075 2.029005,0.59950008 L 2.029005,0.6020552 L 2.0070247,0.6020552 C 2.0069892,0.59822055 2.0049696,0.59588591 2.0009499,0.5950552 C 2.0000798,0.59487016 1.9964892,0.59477567 1.9901546,0.59477567 C 1.9813042,0.59477567 1.9744696,0.59494496 1.9697097,0.59527567 C 1.9670994,0.59546071 1.9652294,0.59587016 1.9641191,0.59651583 C 1.9625246,0.59746071 1.9617294,0.59909063 1.9617294,0.60140559 C 1.9617294,0.60451583 1.9633199,0.60650008 1.966505,0.60733079 C 1.967879,0.60768512 1.9709144,0.60787016 1.9756191,0.60787016 L 1.9966191,0.60787016 C 1.9980246,0.60787016 2.0017097,0.6079804 2.00769,0.60818512 C 2.0146349,0.60844497 2.0195246,0.60916544 2.0223947,0.61035047 C 2.0288593,0.61307094 2.0320994,0.61979535 2.0320994,0.63053547 C 2.0320994,0.64048035 2.0293947,0.64692527 2.0239695,0.64988587 C 2.0188593,0.65268508 2.0057097,0.65407091 1.9845246,0.65407091 C 1.9683592,0.65407091 1.957749,0.65355516 1.9527293,0.65250004 C 1.9478396,0.65148035 1.9443947,0.64933075 1.9423592,0.64603547 C 1.9406348,0.64322051 1.9397647,0.63916539 1.9397647,0.63383077 C 1.9397647,0.63325597 1.9397844,0.63196069 1.9398199,0.62994494 L 1.93982,0.629945 z "
   style="fill:#de411a;fill-rule:nonzero"
   id="path31020" />
  <line
   class="fil2 str0"
   x1="0.55445701"
   y1="0.63399601"
   x2="0.55445701"
   y2="0.29155901"
   id="line31022"
   style="fill:none;stroke:#1f1a17;stroke-width:0.0638898" />
  <line
   class="fil2 str1"
   x1="0.27838999"
   y1="0.43533501"
   x2="0.621346"
   y2="0.43533501"
   id="line31024"
   style="fill:none;stroke:#d63b27;stroke-width:0.0638898" />
  <line
   class="fil2 str0"
   x1="0.42290601"
   y1="0.709512"
   x2="0.42290601"
   y2="0.367075"
   id="line31026"
   style="fill:none;stroke:#1f1a17;stroke-width:0.0638898" />
  <line
   class="fil2 str1"
   x1="0.354339"
   y1="0.56850803"
   x2="0.69729501"
   y2="0.56850803"
   id="line31028"
   style="fill:none;stroke:#d63b27;stroke-width:0.0638898" />
  <line
   class="fil2 str0"
   x1="0.55445701"
   y1="0.63399601"
   x2="0.55445701"
   y2="0.47769701"
   id="line31030"
   style="fill:none;stroke:#1f1a17;stroke-width:0.0638898" />
 </g>
</svg>
